<?xml version="1.0" encoding="UTF-8"?>
<svg xmlns="http://www.w3.org/2000/svg" version="1.1" viewBox="0 0 57.8 31">
  <defs>
    <style>
      .cls-1 {
        fill: none;
        stroke: #000;
        stroke-miterlimit: 10;
        stroke-width: .3px;
      }
    </style>
  </defs>
  <!-- Generator: Adobe Illustrator 28.6.0, SVG Export Plug-In . SVG Version: 1.2.0 Build 709)  -->
  <g>
    <g id="Layer_1">
      <path class="cls-1" d="M23.2,10.5v4.2h-1.4V2.1h6.3c.2,0,.4,0,.5.2l2.8,2.7c.1.1.2.3.2.5v1.5c0,.2,0,.3-.2.5l-2.8,2.8c-.1.1-.3.2-.5.2h-4.9s0,0,0,0ZM23.2,9.1h4.6l2.4-2.4v-.9l-2.4-2.4h-4.6v5.7Z"/>
      <path class="cls-1" d="M39.6,13.3h1.4v1.3h-7.7c-.2,0-.4,0-.5-.2l-1.3-1.4c-.1-.1-.2-.3-.2-.5v-1.5c0-.2,0-.4.2-.5l1.4-1.4c.1-.1.3-.2.5-.2h4.9v-1.8l-.9-1h-4.7v-1.3h5c.2,0,.4,0,.5.2l1.3,1.4c.1.1.2.3.2.5v6.4ZM38.2,13.3v-3h-4.6l-1,1v1l1,1h4.6Z"/>
      <path class="cls-1" d="M44.8,13l.3.3h1.1v1.4h-1.4c-.2,0-.4,0-.5-.2l-.7-.7c-.1-.1-.2-.3-.2-.5v-7h-2.8v-1.4h2.9V.7h1.4v4.2h2.8v1.4h-2.9v6.7Z"/>
      <path class="cls-1" d="M51.1,8.6v6h-1.4v-7.7c0-.2,0-.4-.2-.5-.1-.1-.3-.2-.5-.2h-.4v-1.3h1.1c.4,0,.5.1.9.4.3.2.5.6.5,1v.4l1.6-1.6c.1-.1.3-.2.5-.2h1.7c.2,0,.4,0,.5.2l1.5,1.4c.1.1.2.3.2.5v.7h-1.4v-.4l-1-1h-1.2s-2.3,2.4-2.3,2.4Z"/>
      <path class="cls-1" d="M58,1.1h1.5v1.4h-1.5v-1.4ZM58,5.3h1.5v9.8h-1.5V5.3Z"/>
      <path class="cls-1" d="M68.9,4.9v1.4h-4.7l-2.4,2.4v2.3l2.4,2.4h4.6v1.3h-4.9c-.2,0-.3,0-.5-.2l-2.8-2.8c-.1-.1-.2-.3-.2-.5v-2.8c0-.2,0-.4.2-.5l2.8-2.8c.1-.1.3-.2.5-.2,0,0,4.9,0,4.9,0Z"/>
      <path class="cls-1" d="M74.5,9.8l3.8,3.9-1,1-4.1-4.2h-1.8v4.2h-1.4V.7h1.4v8.4h1.9l4.1-4.2,1,1-3.9,3.9h0Z"/>
      <path class="cls-1" d="M8.6,19.3l-.9-.9H2.6l-1,1v.7l8,5.9c.2.1.3.4.3.6v1.4c0,.2,0,.3-.2.5l-1.3,1.4c-.1.1-.3.2-.5.2H2.3c-.2,0-.4,0-.5-.2l-1.4-1.4c-.1-.1-.2-.3-.2-.5v-.7h1.4v.4l1,1h5.1l.9-1v-.7L.6,21.1c-.2-.1-.3-.3-.3-.6v-1.4c0-.2,0-.4.2-.5l1.4-1.4c.1-.1.3-.2.5-.2h5.6c.2,0,.4,0,.5.2l1.3,1.3c.1.1.2.3.2.5v.7h-1.4s0-.5,0-.5Z"/>
      <path class="cls-1" d="M11.8,28.4l.3.3h1.1v1.4h-1.4c-.2,0-.4,0-.5-.2l-.7-.7c-.1-.1-.2-.3-.2-.5v-7h-2.8v-1.4h2.8v-4.3h1.4v4.2h2.8v1.4h-2.8s0,6.7,0,6.7Z"/>
      <path class="cls-1" d="M15.2,16.1h1.4v1.4h-1.4v-1.4ZM15.2,20.3h1.4v9.8h-1.4v-9.8Z"/>
      <path class="cls-1" d="M18.4,28.4l.3.3h1.1v1.4h-1.4c-.2,0-.4,0-.5-.2l-.7-.7c-.1-.1-.2-.3-.2-.5v-12.7h1.4v12.3Z"/>
      <path class="cls-1" d="M21.7,28.4l.3.3h1.1v1.4h-1.4c-.2,0-.4,0-.5-.2l-.7-.7c-.1-.1-.2-.3-.2-.5v-12.6h1.4v12.3Z"/>
      <path class="cls-1" d="M23.7,30.1v-14.2h1.4v6.2l1.6-1.6c.1,0,.3-.1.5-.1h2.7c.2,0,.4,0,.5.2l1.4,1.4c.1.1.2.3.2.5v7.8h-1.4v-7.5l-1-1h-2.2l-2.4,2.3v6.1h-1.4Z"/>
      <path class="cls-1" d="M40.9,28.7h1.4v1.3h-7.7c-.2,0-.4,0-.5-.2l-1.3-1.4c-.1-.1-.2-.3-.2-.5v-1.5c0-.2,0-.4.2-.5l1.4-1.4c.1-.1.3-.2.5-.2h4.9v-1.8l-.9-1h-4.7v-1.3h5c.2,0,.4,0,.5.2l1.3,1.4c.1.1.2.3.2.5,0,0,0,6.4,0,6.4ZM39.6,28.7v-3h-4.6l-1,1v1l1,1h4.6Z"/>
      <path class="cls-1" d="M44.2,24v6.1h-1.4v-7.7c0-.2,0-.4-.2-.5-.1-.1-.3-.2-.5-.2h-.4v-1.4h1.1c.3,0,.6.2.8.5.3.2.5.6.5,1v.4l1.6-1.6c.1-.1.3-.2.5-.2h1.7c.2,0,.4,0,.5.2l1.5,1.4c.1.1.2.3.2.5v.7h-1.4v-.4l-1-1h-1.1s-2.4,2.3-2.4,2.3Z"/>
      <path class="cls-1" d="M54.8,28.4l.3.3h1.1v1.4h-1.4c-.2,0-.4,0-.5-.2l-.7-.7c-.1-.1-.2-.3-.2-.5v-7h-2.8v-1.4h2.8v-4.3h1.4v4.2h2.8v1.4h-2.8v6.7Z"/>
      <path class="cls-1" d="M-34.1,10.4v4.2h-1.4V1.9h6.3c.2,0,.4,0,.5.2l2.8,2.7c.1.1.2.3.2.5v1.5c0,.2,0,.3-.2.5l-2.8,2.8c-.1.1-.3.2-.5.2h-4.9s0,0,0,0ZM-34.1,9h4.6l2.4-2.4v-.9l-2.4-2.4h-4.6v5.7Z"/>
      <path class="cls-1" d="M-17.7,13.2h1.4v1.3h-7.7c-.2,0-.4,0-.5-.2l-1.3-1.4c-.1-.1-.2-.3-.2-.5v-1.5c0-.2,0-.4.2-.5l1.4-1.4c.1-.1.3-.2.5-.2h4.9v-1.8l-.9-1h-4.7v-1.3h5c.2,0,.4,0,.5.2l1.3,1.4c.1.1.2.3.2.5v6.4ZM-19.1,13.2v-3h-4.6l-1,1v1l1,1h4.6Z"/>
      <path class="cls-1" d="M-12.5,12.9l.3.3h1.1v1.4h-1.4c-.2,0-.4,0-.5-.2l-.7-.7c-.1-.1-.2-.3-.2-.5v-7h-2.8v-1.4h2.9V.5h1.4v4.2h2.8v1.4h-2.9v6.7Z"/>
      <path class="cls-1" d="M-6.2,8.5v6h-1.4v-7.7c0-.2,0-.4-.2-.5-.1-.1-.3-.2-.5-.2h-.4v-1.3h1.1c.4,0,.5.1.9.4.3.2.5.6.5,1v.4l1.6-1.6c.1-.1.3-.2.5-.2h1.7c.2,0,.4,0,.5.2l1.5,1.4c.1.1.2.3.2.5v.7h-1.4v-.4l-1-1h-1.2s-2.3,2.4-2.3,2.4Z"/>
      <path class="cls-1" d="M.7,1h1.5v1.4H.7V1ZM.7,5.2h1.5v9.8H.7V5.2Z"/>
      <path class="cls-1" d="M11.6,4.8v1.4h-4.7l-2.4,2.4v2.3l2.4,2.4h4.6v1.3h-4.9c-.2,0-.3,0-.5-.2l-2.8-2.8c-.1-.1-.2-.3-.2-.5v-2.8c0-.2,0-.4.2-.5l2.8-2.8c.1-.1.3-.2.5-.2,0,0,4.9,0,4.9,0Z"/>
      <path class="cls-1" d="M17.2,9.7l3.8,3.9-1,1-4.1-4.2h-1.8v4.2h-1.4V.5h1.4v8.4h1.9l4.1-4.2,1,1-3.9,3.9h0Z"/>
    </g>
  </g>
</svg>